<?xml version="1.0" encoding="UTF-8"?>
<svg width="115px" height="128px" viewBox="0 0 115 128" version="1.1" xmlns="http://www.w3.org/2000/svg" xmlns:xlink="http://www.w3.org/1999/xlink">
    <!-- Generator: Sketch 46.2 (44496) - http://www.bohemiancoding.com/sketch -->
    <title>Group 2@2x</title>
    <desc>Created with Sketch.</desc>
    <defs></defs>
    <g id="Page-1" stroke="none" stroke-width="1" fill="none" fill-rule="evenodd">
        <g id="Group-2" transform="translate(3.000000, 3.000000)" stroke="#FFFFFF" stroke-width="6">
            <path d="M59.1265877,120.566243 L103.253175,95.089746 C106.347186,93.303418 108.253175,90.0021478 108.253175,86.4294919 L108.253175,35.4764973 C108.253175,31.9038414 106.347186,28.6025712 103.253175,26.8162433 L59.1265877,1.33974596 C56.032577,-0.446581987 52.2205985,-0.446581987 49.1265877,1.33974596 L5,26.8162433 C1.90598923,28.6025712 3.19744231e-14,31.9038414 3.19744231e-14,35.4764973 L0,86.4294919 C3.55271368e-15,90.0021478 1.90598923,93.303418 5,95.089746 L49.1265877,120.566243 C52.2205985,122.352571 56.032577,122.352571 59.1265877,120.566243 Z" id="Polygon-Copy-2"></path>
            <path d="M77.6839561,86.4294919 C83.8719776,82.856836 87.6839561,76.2542956 87.6839561,69.1089838 L87.6839561,53.7029946 C87.6839561,46.5576828 83.8719776,39.9551424 77.6839561,36.3824865 L64.341978,28.6794919 C58.1539565,25.106836 50.5299996,25.106836 44.341978,28.6794919 L31,36.3824865 C24.8119785,39.9551424 21,46.5576828 21,53.7029946 L21,69.1089838 C21,76.2542956 24.8119785,82.856836 31,86.4294919 L44.341978,94.1324865 C50.5299996,97.7051424 58.1539565,97.7051424 64.341978,94.1324865 L77.6839561,86.4294919 Z" id="Polygon-Copy-2"></path>
            <circle id="Oval-Copy-2" cx="54.5" cy="60.5" r="11.5"></circle>
        </g>
    </g>
</svg>